<?xml version="1.0" standalone="no"?>
<!DOCTYPE svg PUBLIC "-//W3C//DTD SVG 1.1//EN" "http://www.w3.org/Graphics/SVG/1.1/DTD/svg11.dtd" >
<svg xmlns="http://www.w3.org/2000/svg" xmlns:xlink="http://www.w3.org/1999/xlink" version="1.1">
<metadata>
Created by FontForge 20150102 at Wed Jan 21 06:13:41 2015
 By uniteet7
Copyright (C) 2004 Hoefler &#38; Frere-Jones Typography, Inc. www.typography.com
</metadata>
<defs>
<font id="WhitneyHTFSemiBoldSC" horiz-adv-x="454" >
  <font-face 
    font-family="WhitneyHTFSemiBoldSC"
    font-weight="600"
    font-stretch="normal"
    units-per-em="1000"
    panose-1="0 0 0 0 0 0 0 0 0 0"
    ascent="750"
    descent="-250"
    x-height="513"
    cap-height="690"
    bbox="-51 -200 1219 947"
    underline-thickness="20"
    underline-position="-113"
    unicode-range="U+000D-FB02"
  />
<missing-glyph horiz-adv-x="500" 
 />
    <glyph glyph-name=".notdef" horiz-adv-x="500" 
 />
    <glyph glyph-name=".null" horiz-adv-x="0" 
 />
    <glyph glyph-name="nonmarkingreturn" unicode="&#xd;" horiz-adv-x="250" 
 />
    <glyph glyph-name="space" unicode=" " horiz-adv-x="214" 
 />
    <glyph glyph-name="exclam" unicode="!" horiz-adv-x="284" 
d="M180 238l-75 -17l-37 469h148zM76 0v146h131v-146h-131z" />
    <glyph glyph-name="quotedbl" unicode="&#x22;" horiz-adv-x="465" 
d="M375 383l-74 16l-33 238h142zM162 383l-75 16l-32 238h141z" />
    <glyph glyph-name="numbersign" unicode="#" horiz-adv-x="564" 
d="M175 -6l-71 17l17 96h-87v90h104l20 118h-94l-14 91h124l20 107h75l-19 -107h117l21 112l72 -17l-18 -95h87v-91h-103l-20 -118h92l16 -90h-125l-19 -108h-75l19 108h-117zM354 318h-122l-22 -123h122z" />
    <glyph glyph-name="dollar" unicode="$" horiz-adv-x="461" 
d="M307 515q54 -9 101 -30l-15 -87q-22 12 -48 21.5t-54 14.5l-20 -127q83 -22 121 -56.5t38 -94.5q0 -75 -53 -116.5t-150 -41.5h-2l-16 -103l-61 14l15 94q-39 6 -74.5 17t-60.5 24l15 87q62 -36 136 -48l23 143q-81 20 -118.5 54t-37.5 91q0 69 50.5 109t143.5 40h4
l2 11.5t4 25.5q3 16 6 36l62 -13zM235 79q50 1 74 18t24 46q0 25 -16 41.5t-61 28.5zM236 440h-2q-50 0 -70.5 -16.5t-20.5 -40.5q0 -23 15.5 -37.5t57.5 -25.5l3.5 18.5t6.5 41.5q5 26 10 60z" />
    <glyph glyph-name="percent" unicode="%" horiz-adv-x="733" 
d="M307 374q0 -36 -10.5 -63.5t-29.5 -46t-44.5 -28.5t-54.5 -10q-28 0 -53 10t-44 28.5t-29.5 46t-10.5 63.5t10.5 63.5t29.5 46.5t44 29t53 10q29 0 54.5 -10t44.5 -29t29.5 -46.5t10.5 -63.5zM238 -6l-71 17l328 511l70 -18zM702 140q0 -36 -10.5 -63.5t-29.5 -46
t-44 -28.5t-54 -10q-58 0 -97.5 38.5t-39.5 109.5t39.5 110t97.5 39q29 0 54 -10t44 -29t29.5 -46.5t10.5 -63.5zM226 375q0 37 -14 60.5t-44 23.5q-31 0 -43.5 -23.5t-12.5 -61.5q0 -37 14 -60.5t43 -23.5q31 0 44 23.5t13 61.5zM621 141q0 37 -14 60.5t-43 23.5
q-31 0 -44 -23.5t-13 -61.5q0 -37 13.5 -60.5t44.5 -23.5t43.5 23.5t12.5 61.5z" />
    <glyph glyph-name="ampersand" unicode="&#x26;" horiz-adv-x="510" 
d="M406 -6l-57 58q-32 -29 -69.5 -45.5t-85.5 -16.5q-82 0 -127 38.5t-45 104.5q0 57 31.5 93.5t80.5 59.5q-23 26 -34 51.5t-11 56.5q0 54 39 91t113 37q42 0 77 -9.5t61 -22.5l-16 -94q-28 17 -56 26.5t-54 9.5q-28 0 -41 -12t-13 -32q0 -19 10 -34.5t31 -38.5l105 -113
q17 44 22 101l92 -20q-6 -42 -18 -81t-30 -71l108 -115zM186 228q-55 -32 -55 -82q0 -33 21.5 -53t58.5 -20q50 0 87 37z" />
    <glyph glyph-name="quotesingle" unicode="'" horiz-adv-x="253" 
d="M164 383l-77 16l-32 238h143z" />
    <glyph glyph-name="parenleft" unicode="(" horiz-adv-x="314" 
d="M204 -74q-77 61 -120.5 134t-43.5 171q0 109 59 190.5t163 129.5l13 -91q-56 -39 -86 -95.5t-30 -133.5q0 -80 36.5 -147t110.5 -135z" />
    <glyph glyph-name="parenright" unicode=")" horiz-adv-x="314" 
d="M274 238q0 -109 -59 -190t-163 -130l-13 91q55 39 85.5 95.5t30.5 133.5q0 80 -36.5 147t-111.5 135l103 23q77 -61 120.5 -134t43.5 -171z" />
    <glyph glyph-name="asterisk" unicode="*" horiz-adv-x="419" 
d="M275 497l53 -113l-29 -19l-90 84l-90 -84l-28 19l52 113l-107 60l10 32l123 -13l22 119h36l22 -119l123 13l11 -32z" />
    <glyph glyph-name="plus" unicode="+" horiz-adv-x="569" 
d="M333 208v-188h-100v188h-182v97h182v187h100v-187h182v-97h-182z" />
    <glyph glyph-name="comma" unicode="," horiz-adv-x="243" 
d="M94 -141l-69 17l46 270h137z" />
    <glyph glyph-name="hyphen" unicode="-" horiz-adv-x="351" 
d="M47 230v115h257v-115h-257z" />
    <glyph glyph-name="period" unicode="." horiz-adv-x="243" 
d="M56 0v146h131v-146h-131z" />
    <glyph glyph-name="slash" unicode="/" horiz-adv-x="403" 
d="M64 -82l-86 18l350 627l86 -18z" />
    <glyph glyph-name="zero" unicode="0" horiz-adv-x="550" 
d="M513 256q0 -61 -18 -110.5t-50.5 -84t-76 -53t-94.5 -18.5t-94 18.5t-75 53t-50 84t-18 110.5q0 62 18 111.5t50 84t75 53.5t94 19t94.5 -19t76 -53.5t50.5 -84t18 -111.5zM392 256q0 76 -31.5 122t-86.5 46t-86 -45.5t-31 -122.5q0 -75 31.5 -121t85.5 -46
q57 0 87.5 45.5t30.5 121.5z" />
    <glyph glyph-name="one" unicode="1" horiz-adv-x="343" 
d="M146 0v395l-115 -43l-14 99l144 69h106v-520h-121z" />
    <glyph glyph-name="two" unicode="2" horiz-adv-x="498" 
d="M39 0v91l212 166q35 26 52.5 48.5t17.5 49.5q0 30 -20.5 47.5t-59.5 17.5q-41 0 -83.5 -16t-88.5 -42l-18 102q45 26 95.5 41.5t113.5 15.5q87 0 138 -40.5t51 -110.5q0 -28 -7 -50.5t-22 -43t-38 -40.5t-54 -43l-130 -95h248l14 -98h-421z" />
    <glyph glyph-name="three" unicode="3" horiz-adv-x="490" 
d="M449 38q0 -52 -24 -93.5t-66 -70.5t-99 -44.5t-123 -15.5q-56 0 -95 6l-18 110q52 -11 115 -11q87 0 138 34.5t51 88.5q0 42 -29.5 63t-83.5 21q-17 0 -33 -1t-31 -3l-25 -2v98l40 5q84 11 117 43t33 74q0 37 -23 58t-68 21q-47 0 -91.5 -19t-86.5 -48l-16 103
q39 28 92.5 48t118.5 20q97 0 146 -46t49 -119q0 -33 -10 -59.5t-26.5 -47.5t-38.5 -36.5t-45 -26.5q27 -6 51 -16.5t42 -28.5t28.5 -43.5t10.5 -61.5z" />
    <glyph glyph-name="four" unicode="4" horiz-adv-x="576" 
d="M458 0v-167l-117 -19v186h-312v84l284 437h145v-428h99v-93h-99zM341 393l-195 -300h195v300z" />
    <glyph glyph-name="five" unicode="5" horiz-adv-x="504" 
d="M467 72q0 -57 -23.5 -104.5t-66 -81.5t-101 -52.5t-129.5 -18.5q-34 0 -56.5 1.5t-41.5 4.5l-18 108q26 -5 54 -7.5t59 -2.5q45 0 82 11t63 30.5t40 45t14 55.5q0 47 -28 67.5t-71 20.5q-28 0 -50 -5.5t-44 -15.5l-94 17l13 368h363l15 -106h-277l-6 -175q24 9 51 14.5
t60 5.5q40 0 75 -11.5t61 -34t41 -56.5t15 -78z" />
    <glyph glyph-name="six" unicode="6" horiz-adv-x="554" 
d="M171 396q35 19 73.5 30.5t79.5 11.5q43 0 78.5 -13.5t61 -39.5t39.5 -65t14 -89q0 -52 -18 -96.5t-49.5 -76.5t-75 -50t-94.5 -18q-53 0 -97 18.5t-75.5 55.5t-48.5 91.5t-17 126.5q0 90 27 161t76 124t116 87.5t147 50.5l17 -105q-112 -27 -173 -78t-81 -126zM159 297
v-16q0 -93 31.5 -142.5t91.5 -49.5q53 0 84.5 36.5t31.5 96.5q0 59 -27 88.5t-78 29.5q-35 0 -69.5 -12t-64.5 -31z" />
    <glyph glyph-name="seven" unicode="7" horiz-adv-x="500" 
d="M205 -186l-118 29l240 559h-287l-17 111h437v-99z" />
    <glyph glyph-name="eight" unicode="8" horiz-adv-x="558" 
d="M303 401q37 24 57 53t20 64q0 40 -24.5 65t-74.5 25q-51 0 -76 -27.5t-25 -61.5q0 -19 6 -35t20 -29.5t37.5 -26.5t59.5 -27zM252 318q-43 -25 -68 -59t-25 -77q0 -46 32.5 -73.5t88.5 -27.5q54 0 85.5 28.5t31.5 70.5q0 23 -6.5 41.5t-23 34t-44.5 30.5t-71 32zM165 357
q-48 27 -74.5 64.5t-26.5 94.5q0 40 16 73.5t44.5 57.5t69 37.5t89.5 13.5q51 0 90.5 -13.5t67 -37t41.5 -55.5t14 -69q0 -52 -28.5 -92t-75.5 -69q63 -30 95 -71t32 -109q0 -40 -16.5 -75.5t-47.5 -62t-75.5 -42t-100.5 -15.5q-60 0 -105 15.5t-75 41.5t-45 60.5t-15 72.5
q0 57 34 102.5t92 77.5z" />
    <glyph glyph-name="nine" unicode="9" horiz-adv-x="554" 
d="M384 113q-38 -20 -76 -30.5t-78 -10.5q-86 0 -139.5 53t-53.5 156q0 53 18 97.5t49.5 76.5t74.5 50t94 18q53 0 97 -18.5t75.5 -55t49 -91.5t17.5 -127q0 -91 -26.5 -162t-75 -122.5t-116 -85.5t-149.5 -50l-16 105q114 27 174.5 76t80.5 121zM394 210v22
q0 93 -32.5 142.5t-91.5 49.5q-51 0 -82.5 -37.5t-31.5 -97.5q0 -119 106 -119q37 0 69 11t63 29z" />
    <glyph glyph-name="colon" unicode=":" horiz-adv-x="252" 
d="M60 339v144h131v-144h-131zM60 0v145h131v-145h-131z" />
    <glyph glyph-name="semicolon" unicode=";" horiz-adv-x="252" 
d="M67 339v144h131v-144h-131zM91 -141l-70 17l47 269h137z" />
    <glyph glyph-name="less" unicode="&#x3c;" horiz-adv-x="572" 
d="M57 213v86l447 219v-108l-324 -154l324 -154v-109z" />
    <glyph glyph-name="equal" unicode="=" horiz-adv-x="590" 
d="M73 318v100h445v-100h-445zM73 95v100h445v-100h-445z" />
    <glyph glyph-name="greater" unicode="&#x3e;" horiz-adv-x="572" 
d="M68 -5v108l324 153l-324 155v109l447 -219v-87z" />
    <glyph glyph-name="question" unicode="?" horiz-adv-x="512" 
d="M157 0v146h132v-146h-132zM265 234l-73 -16l-12 159l31 12q72 26 103 52.5t31 68.5q0 38 -27.5 59.5t-72.5 21.5q-54 0 -102 -21.5t-91 -54.5l-17 116q45 32 99.5 52t123.5 20q99 0 156.5 -48.5t57.5 -135.5q0 -42 -13.5 -74.5t-39 -58t-63 -45.5t-85.5 -38z" />
    <glyph glyph-name="at" unicode="@" horiz-adv-x="835" 
d="M497 370q-12 4 -23 5.5t-27 1.5q-24 0 -47 -14t-41 -39.5t-29 -60t-11 -75.5q0 -33 12 -46.5t32 -13.5t44 18.5t61 63.5zM469 132q-41 -47 -73.5 -68t-70.5 -21q-44 0 -75.5 31.5t-31.5 94.5q0 64 20 117t53 91.5t76 59.5t89 21q40 0 78 -8t73 -22l-38 -215
q-2 -11 -4 -26t-2 -29q0 -26 15.5 -42.5t47.5 -16.5q53 0 86.5 54t33.5 154q0 74 -22 128.5t-60.5 90.5t-91.5 54t-115 18q-74 0 -141 -31t-117.5 -86t-80 -130t-29.5 -163q0 -77 22 -132.5t61 -91t92.5 -52.5t116.5 -17t116.5 13t98.5 36l6 -36q-42 -21 -99 -34.5
t-126 -13.5q-76 0 -137.5 21t-105 62.5t-66.5 102.5t-23 141q0 90 32.5 171.5t88.5 142.5t132 97t163 36q74 0 134.5 -22.5t103.5 -64.5t66.5 -102.5t23.5 -136.5q0 -59 -13 -107.5t-37.5 -83.5t-59 -54.5t-77.5 -19.5q-51 0 -86.5 23t-46.5 66z" />
    <glyph glyph-name="A" unicode="A" horiz-adv-x="695" 
d="M544 -7l-65 182h-264l-63 -175h-131l259 693h141l253 -676zM346 552l-95 -269h191z" />
    <glyph glyph-name="B" unicode="B" horiz-adv-x="566" 
d="M531 201q0 -103 -69 -152t-191 -49h-198v690h201q117 0 173 -48.5t56 -130.5q0 -54 -27.5 -89.5t-72.5 -54.5q58 -18 93 -57.5t35 -108.5zM380 500q0 42 -26.5 65.5t-86.5 23.5h-67v-183h61q59 0 89 24.5t30 69.5zM404 205q0 53 -34.5 80t-100.5 27h-69v-211h71
q63 0 98 26t35 78z" />
    <glyph glyph-name="C" unicode="C" horiz-adv-x="625" 
d="M576 47q-42 -26 -93 -42.5t-110 -16.5q-75 0 -135.5 25.5t-103 72t-65.5 112.5t-23 146t23.5 146t66.5 113t103 73t133 26q60 0 107.5 -13.5t85.5 -36.5l-19 -125q-34 26 -75.5 43.5t-92.5 17.5q-92 0 -144.5 -65t-52.5 -178q0 -115 55 -178.5t147 -63.5q48 0 91.5 16
t83.5 42z" />
    <glyph glyph-name="D" unicode="D" horiz-adv-x="704" 
d="M656 346q0 -77 -24 -140.5t-70 -109.5t-114 -71t-156 -25h-219v690h219q90 0 158 -25t114 -70.5t69 -109t23 -139.5zM521 345q0 60 -16.5 104t-46.5 73.5t-72.5 44t-94.5 14.5h-86v-472h84q109 0 170.5 57.5t61.5 178.5z" />
    <glyph glyph-name="E" unicode="E" horiz-adv-x="518" 
d="M73 0v690h401v-112h-270v-162h208l18 -114h-226v-190h280v-112h-411z" />
    <glyph glyph-name="F" unicode="F" horiz-adv-x="491" 
d="M205 575v-175h194l19 -116h-213v-284h-132v690h386v-115h-254z" />
    <glyph glyph-name="G" unicode="G" horiz-adv-x="689" 
d="M627 57q-49 -32 -111 -51t-131 -19q-82 0 -145.5 26t-106.5 73t-65 112.5t-22 145.5t23 146.5t66.5 113.5t106 73t141.5 26q66 0 117 -15t93 -40l-19 -123q-39 28 -86 46.5t-104 18.5q-51 0 -89 -17.5t-63.5 -50t-38 -77.5t-12.5 -100t13 -100.5t39.5 -78t65.5 -50
t91 -17.5q36 0 63 7t53 21v153h-140l-16 106h277v-329z" />
    <glyph glyph-name="H" unicode="H" horiz-adv-x="705" 
d="M499 0v300h-293v-300h-133v690h133v-272h293v272h133v-690h-133z" />
    <glyph glyph-name="I" unicode="I" horiz-adv-x="288" 
d="M78 0v690h133v-690h-133z" />
    <glyph glyph-name="J" unicode="J" horiz-adv-x="397" 
d="M330 190q0 -52 -15.5 -89.5t-44 -61.5t-67 -35t-85.5 -11q-23 0 -44.5 2.5t-34.5 4.5l-18 115q17 -5 34.5 -7.5t44.5 -2.5q46 0 71.5 23t25.5 79v483h133v-500z" />
    <glyph glyph-name="K" unicode="K" horiz-adv-x="629" 
d="M484 -7l-278 343v-336h-133v690h133v-303l254 303h152l-274 -319l287 -353z" />
    <glyph glyph-name="L" unicode="L" horiz-adv-x="477" 
d="M73 0v690h133v-573h230l18 -117h-381z" />
    <glyph glyph-name="M" unicode="M" horiz-adv-x="900" 
d="M714 0l-38 511l-175 -513h-116l-176 513l-36 -511h-119l53 690h170l175 -521l174 521h168l52 -690h-132z" />
    <glyph glyph-name="N" unicode="N" horiz-adv-x="704" 
d="M521 0l-325 475v-475h-123v690h125l310 -452v452h123v-690h-110z" />
    <glyph glyph-name="O" unicode="O" horiz-adv-x="740" 
d="M694 346q0 -80 -23 -146t-65.5 -113.5t-102.5 -73.5t-134 -26q-73 0 -133 26t-102 73t-65 112.5t-23 145.5t23 146.5t65.5 113.5t102.5 73t134 26t134 -26t102 -73t64.5 -112.5t22.5 -145.5zM560 345q0 57 -13 102.5t-37.5 78t-60 50t-79.5 17.5t-79 -17.5t-59.5 -50
t-37.5 -78t-13 -102.5t13 -102.5t37.5 -78t59.5 -50t79 -17.5q45 0 80 17.5t59.5 50t37.5 78t13 102.5z" />
    <glyph glyph-name="P" unicode="P" horiz-adv-x="555" 
d="M528 478q0 -56 -19 -98t-53.5 -70t-83.5 -42t-108 -14h-59v-254h-132v690h202q119 0 186 -53.5t67 -158.5zM398 475q0 109 -130 109h-63v-223h58q64 0 99.5 27t35.5 87z" />
    <glyph glyph-name="Q" unicode="Q" horiz-adv-x="740" 
d="M694 351q0 -121 -51 -202t-136 -117l179 -61l-25 -114l-380 139q-117 42 -176 127.5t-59 220.5q0 80 23 146.5t65.5 113.5t102.5 73t134 26t133.5 -25t101.5 -71.5t65 -111t23 -144.5zM560 344q0 56 -13 102t-37.5 78.5t-60 50.5t-79.5 18q-45 0 -80 -18t-59 -50.5
t-37 -78.5t-13 -102t13 -102.5t37.5 -79.5t59.5 -51.5t79 -18.5q45 0 80 18.5t59.5 51.5t37.5 79.5t13 102.5z" />
    <glyph glyph-name="R" unicode="R" horiz-adv-x="593" 
d="M404 476q0 52 -32 80t-95 28h-73v-219h67q62 0 97.5 28.5t35.5 82.5zM580 18l-135 -25l-180 271h-60v-264h-132v690h214q116 0 181.5 -53t65.5 -154q0 -75 -37 -123t-101 -71z" />
    <glyph glyph-name="S" unicode="S" horiz-adv-x="533" 
d="M493 194q0 -49 -17.5 -87t-48.5 -63.5t-73.5 -38.5t-92.5 -13q-63 0 -117 13t-100 35l20 121q44 -26 95.5 -43.5t103.5 -17.5q47 0 75 21t28 60q0 20 -5 35t-18.5 28t-36.5 25.5t-58 26.5q-51 21 -88 40.5t-60.5 43.5t-34.5 54.5t-11 73.5q0 44 16.5 79.5t46.5 60
t71 37.5t89 13q59 0 101.5 -11t80.5 -31l-20 -120q-38 25 -80 39.5t-83 14.5q-48 0 -71.5 -20t-23.5 -51q0 -18 5 -31.5t18 -25.5t35 -23.5t55 -25.5q54 -21 92 -42t61.5 -46.5t34.5 -57t11 -73.5z" />
    <glyph glyph-name="T" unicode="T" horiz-adv-x="605" 
d="M368 575v-575h-134v575h-205v115h537l18 -115h-216z" />
    <glyph glyph-name="U" unicode="U" horiz-adv-x="688" 
d="M623 270q0 -69 -20.5 -121.5t-57.5 -88t-88.5 -54t-114.5 -18.5t-114 18.5t-87 53.5t-55.5 87.5t-19.5 119.5v423h132v-416q0 -79 36 -125t109 -46q74 0 110.5 44t36.5 124v419h133v-420z" />
    <glyph glyph-name="V" unicode="V" horiz-adv-x="685" 
d="M405 -3h-130l-254 676l140 24l184 -529l181 522h138z" />
    <glyph glyph-name="W" unicode="W" horiz-adv-x="1003" 
d="M779 0h-126l-153 502l-153 -502h-125l-193 672l138 25l130 -494l144 487h133l144 -487l126 487h133z" />
    <glyph glyph-name="X" unicode="X" horiz-adv-x="649" 
d="M320 262l-7 -11t-18.5 -29.5t-26 -42t-29.5 -48.5q-36 -57 -81 -131h-139l228 355l-206 317l139 25l148 -240l141 233h140l-209 -325l227 -347l-139 -25z" />
    <glyph glyph-name="Y" unicode="Y" horiz-adv-x="654" 
d="M390 264v-264h-133v263l-241 412l138 22l175 -312l169 305h142z" />
    <glyph glyph-name="Z" unicode="Z" horiz-adv-x="609" 
d="M44 0v97l357 484h-325l-17 109h503v-97l-357 -484h349l17 -109h-527z" />
    <glyph glyph-name="bracketleft" unicode="[" horiz-adv-x="321" 
d="M61 -86v599h227v-78h-120v-443h115l11 -78h-233z" />
    <glyph glyph-name="backslash" unicode="\" horiz-adv-x="403" 
d="M75 563l351 -627l-87 -18l-350 627z" />
    <glyph glyph-name="bracketright" unicode="]" horiz-adv-x="321" 
d="M32 -86v78h121v443h-114l-12 78h234v-599h-229z" />
    <glyph glyph-name="asciicircum" unicode="^" 
d="M309 543l-82 69l-79 -65h-76l100 144h112l94 -134z" />
    <glyph glyph-name="underscore" unicode="_" 
d="M-2 -104v70h458v-70h-458z" />
    <glyph glyph-name="grave" unicode="`" 
d="M250 577l-141 124l147 27l73 -151h-79z" />
    <glyph glyph-name="a" unicode="a" horiz-adv-x="546" 
d="M272 419h-3l-70 -210h143zM129 0h-114l189 518h143l184 -503l-116 -23l-41 123h-206z" />
    <glyph glyph-name="b" unicode="b" horiz-adv-x="488" 
d="M451 149q0 -78 -56.5 -113.5t-148.5 -35.5h-183v513h187q87 0 133 -34t46 -98q0 -44 -20.5 -70.5t-52.5 -40.5q43 -14 69 -42.5t26 -78.5zM321 368q0 58 -79 58h-66v-122h63q82 0 82 64zM337 154q0 35 -22.5 53.5t-68.5 18.5h-70v-140h69q42 0 67 16t25 52z" />
    <glyph glyph-name="c" unicode="c" horiz-adv-x="473" 
d="M439 31q-31 -19 -69.5 -30t-80.5 -11q-57 0 -103.5 18.5t-79.5 53t-51 83.5t-18 110t18.5 110.5t51.5 84.5t79 54t100 19q47 0 81.5 -9.5t63.5 -26.5l-16 -105q-24 18 -53.5 29.5t-64.5 11.5q-63 0 -100.5 -43t-37.5 -124q0 -80 38.5 -123.5t101.5 -43.5q34 0 65.5 11
t59.5 29z" />
    <glyph glyph-name="d" unicode="d" horiz-adv-x="547" 
d="M510 257q0 -55 -18.5 -102.5t-53.5 -81.5t-86.5 -53.5t-117.5 -19.5h-171v513h170q68 0 120 -19t87 -52.5t52.5 -80.5t17.5 -104zM388 256q0 78 -41 118.5t-113 40.5h-53v-317h53q72 0 113 40t41 118z" />
    <glyph glyph-name="e" unicode="e" horiz-adv-x="443" 
d="M63 0v513h334v-95h-217v-107h169l14 -94h-183v-122h223v-95h-340z" />
    <glyph glyph-name="f" unicode="f" horiz-adv-x="420" 
d="M180 417v-116h161l15 -96h-176v-205h-117v513h326v-96h-209z" />
    <glyph glyph-name="g" unicode="g" horiz-adv-x="527" 
d="M481 42q-38 -23 -85.5 -37.5t-104.5 -14.5q-61 0 -108 19t-79.5 54t-49.5 84t-17 108q0 61 18 110.5t51.5 84.5t81 54t106.5 19q51 0 89 -10.5t70 -28.5l-16 -104q-31 20 -65 32.5t-76 12.5q-66 0 -103 -45t-37 -126q0 -79 36 -124.5t108 -45.5q25 0 42.5 4.5t32.5 12.5
v100h-95l-14 89h215v-248z" />
    <glyph glyph-name="h" unicode="h" horiz-adv-x="558" 
d="M376 0v214h-195v-214h-118v513h118v-196h195v196h119v-513h-119z" />
    <glyph glyph-name="i" unicode="i" horiz-adv-x="251" 
d="M67 0v513h118v-513h-118z" />
    <glyph glyph-name="j" unicode="j" horiz-adv-x="331" 
d="M272 155q0 -82 -46.5 -121t-119.5 -39q-23 0 -42.5 2t-28.5 4l-15 97q11 -2 27.5 -4t31.5 -2q37 0 54 15.5t17 55.5v350h122v-358z" />
    <glyph glyph-name="k" unicode="k" horiz-adv-x="502" 
d="M371 -8l-190 253v-245h-118v513h118v-228l172 228h132l-190 -238l199 -260z" />
    <glyph glyph-name="l" unicode="l" horiz-adv-x="407" 
d="M63 0v513h120v-412h179l16 -101h-315z" />
    <glyph glyph-name="m" unicode="m" horiz-adv-x="744" 
d="M573 0l-26 395l-123 -396h-117l-123 396l-25 -395h-104l37 513h164l116 -372l117 372h163l37 -513h-116z" />
    <glyph glyph-name="n" unicode="n" horiz-adv-x="559" 
d="M394 0l-224 338v-338h-107v513h114l212 -320v320h107v-513h-102z" />
    <glyph glyph-name="o" unicode="o" horiz-adv-x="566" 
d="M529 257q0 -61 -19.5 -110.5t-52.5 -84t-78 -53.5t-96 -19t-96 18.5t-78 53t-52.5 84t-19.5 110.5q0 62 19.5 111t53 84t78 53.5t95.5 18.5t96 -18.5t78.5 -53t52.5 -83.5t19 -111zM410 256q0 36 -8.5 67t-25 54t-40 36t-53.5 13t-54 -13t-40 -35.5t-24.5 -53.5t-8.5 -67
t8.5 -67t25 -54t40 -36.5t53.5 -13.5t54 13t40 36t24.5 54t8.5 67z" />
    <glyph glyph-name="p" unicode="p" horiz-adv-x="460" 
d="M438 347q0 -84 -55.5 -128t-152.5 -44h-49v-175h-118v513h176q92 0 145.5 -42.5t53.5 -123.5zM326 344q0 37 -24 57.5t-71 20.5h-51v-156h51q95 0 95 78z" />
    <glyph glyph-name="q" unicode="q" horiz-adv-x="569" 
d="M529 263q0 -82 -34 -139t-97 -91l131 -43l-18 -100l-271 97q-48 17 -85.5 40.5t-64 55.5t-40 74.5t-13.5 97.5q0 62 19.5 111.5t53 84t79 53.5t96.5 19t95.5 -18t77.5 -51.5t52 -81.5t19 -109zM410 255q0 36 -8.5 67t-25 54t-40 36.5t-53.5 13.5t-54 -13t-40 -36
t-24.5 -54.5t-8.5 -67.5q0 -35 8.5 -66t25 -54.5t40 -37t53.5 -13.5t54 13t40 36.5t24.5 54.5t8.5 67z" />
    <glyph glyph-name="r" unicode="r" horiz-adv-x="491" 
d="M354 -7l-126 185h-48v-178h-117v513h179q97 0 149.5 -43t52.5 -121q0 -52 -26.5 -89t-72.5 -56l131 -188zM328 346q0 36 -24 55t-69 19h-56v-153h55q94 0 94 79z" />
    <glyph glyph-name="s" unicode="s" horiz-adv-x="448" 
d="M413 154q0 -75 -53 -118t-142 -43q-51 0 -98.5 10.5t-88.5 27.5l18 99q38 -18 85.5 -31t86.5 -13q40 0 62 14.5t22 40.5q0 25 -18.5 38.5t-66.5 29.5q-42 13 -74 26.5t-54 31.5t-33 42t-11 57q0 35 13.5 63.5t37.5 49t57 31.5t72 11q50 0 90.5 -9.5t69.5 -22.5l-17 -100
q-35 17 -72 27.5t-72 10.5q-33 0 -52 -14.5t-19 -34.5q0 -24 19.5 -36.5t70.5 -29.5q44 -14 76 -28.5t52 -32.5t29.5 -41.5t9.5 -55.5z" />
    <glyph glyph-name="t" unicode="t" horiz-adv-x="470" 
d="M293 411v-411h-122v411h-149v102h413l15 -102h-157z" />
    <glyph glyph-name="u" unicode="u" horiz-adv-x="550" 
d="M490 203q0 -106 -58 -159.5t-159 -53.5q-100 0 -156.5 53.5t-56.5 156.5v313h117v-311q0 -52 23 -82.5t74 -30.5q50 0 74 28.5t24 82.5v313h118v-310z" />
    <glyph glyph-name="v" unicode="v" horiz-adv-x="532" 
d="M327 -6h-128l-184 505l123 23l131 -395l128 386h119z" />
    <glyph glyph-name="w" unicode="w" horiz-adv-x="775" 
d="M614 -2h-126l-100 376l-104 -376h-124l-139 500l122 23l89 -377l98 369h127l98 -369l85 369h115z" />
    <glyph glyph-name="x" unicode="x" horiz-adv-x="502" 
d="M363 -8l-114 190l-110 -182h-127l167 261l-151 238l122 23l103 -176l98 167h128l-156 -245l162 -254z" />
    <glyph glyph-name="y" unicode="y" horiz-adv-x="503" 
d="M309 194v-194h-121v190l-179 311l123 20l120 -222l117 214h126z" />
    <glyph glyph-name="z" unicode="z" horiz-adv-x="478" 
d="M33 0v81l266 340h-234l-14 92h388v-80l-266 -342h253l14 -91h-407z" />
    <glyph glyph-name="braceleft" unicode="{" horiz-adv-x="377" 
d="M235 -86q-58 0 -86 25.5t-28 72.5q0 26 5 51.5t5 51.5q0 36 -21 50t-57 14h-21l-11 69h32q36 0 57 14.5t21 49.5q0 26 -5 52t-5 51q0 47 28 72.5t86 25.5h110v-78h-69q-25 0 -37.5 -8.5t-12.5 -28.5q0 -23 5 -45.5t5 -47.5q0 -41 -20 -61.5t-59 -29.5v-1q39 -9 59 -28.5
t20 -61.5q0 -25 -5 -47.5t-5 -45.5q0 -38 50 -38h61l12 -78h-114z" />
    <glyph glyph-name="bar" unicode="|" horiz-adv-x="283" 
d="M90 -186v892l103 16v-892z" />
    <glyph glyph-name="braceright" unicode="}" horiz-adv-x="377" 
d="M324 179q-35 0 -56 -13.5t-21 -50.5q0 -26 5 -51.5t5 -51.5q0 -47 -28 -72.5t-85 -25.5h-112v78h69q26 0 38 8.5t12 29.5q0 23 -5 45.5t-5 46.5q0 42 20 62.5t60 28.5v2q-40 8 -60 28t-20 62q0 24 5 47t5 46q0 20 -12 28.5t-38 8.5h-61l-10 78h114q57 0 85 -25.5
t28 -72.5q0 -25 -5 -51t-5 -52q0 -35 21 -49.5t56 -14.5h22l11 -69h-33z" />
    <glyph glyph-name="asciitilde" unicode="~" horiz-adv-x="409" 
d="M365 346q-8 -68 -30.5 -97.5t-58.5 -29.5q-20 0 -35 5.5t-36 15.5q-29 14 -41.5 19t-23.5 5t-18.5 -10t-13.5 -38l-64 14q8 68 30 97t58 29q20 0 35.5 -5t35.5 -16q29 -14 41.5 -18.5t23.5 -4.5t18.5 10t13.5 38z" />
    <glyph glyph-name="nonbreakingspace" unicode="&#xa0;" horiz-adv-x="107" 
 />
    <glyph glyph-name="exclamdown" unicode="&#xa1;" horiz-adv-x="284" 
d="M76 544v146h131v-146h-131zM68 0l36 452l75 17l37 -469h-148z" />
    <glyph glyph-name="cent" unicode="&#xa2;" horiz-adv-x="488" 
d="M266 -97l-70 16l15 92q-78 19 -123.5 80t-45.5 158q0 60 18.5 106.5t50.5 78t76.5 47.5t95.5 16h3l16 101l70 -16q-4 -26 -7 -46q-3 -19 -5 -33l-2 -14q25 -5 45.5 -13t37.5 -19l-15 -103q-42 30 -88 40l-2 -12.5t-5 -33t-7 -46.5t-8 -54q-10 -64 -23 -146q35 0 68 9
t71 36l13 -97q-38 -24 -76.5 -35.5t-86.5 -11.5zM275 400q-56 -4 -87.5 -41.5t-31.5 -109.5q0 -54 19.5 -88t55.5 -48z" />
    <glyph glyph-name="sterling" unicode="&#xa3;" horiz-adv-x="487" 
d="M178 94h258l14 -94h-401v68l54 141h-53v87h86l28 72q32 80 77.5 117t124.5 37q26 0 48.5 -3t40.5 -8l-17 -98q-17 5 -32.5 7t-33.5 2q-38 0 -59 -20t-36 -58l-19 -48h117l13 -87h-164z" />
    <glyph glyph-name="currency" unicode="&#xa4;" horiz-adv-x="525" 
d="M213 210q9 -55 43.5 -88t88.5 -33q34 0 66.5 11t61.5 29l15 -98q-32 -19 -71 -30t-84 -11q-103 0 -164.5 59t-72.5 161h-70v87h70q6 52 25.5 94t50 71t71.5 45t89 16t83 -9.5t64 -26.5l-16 -105q-26 18 -55.5 29.5t-67.5 11.5q-51 0 -85.5 -34t-42.5 -92h164l14 -87h-177
z" />
    <glyph glyph-name="yen" unicode="&#xa5;" horiz-adv-x="526" 
d="M315 0h-115v134h-136v84h120l-176 281l119 19l136 -233l132 228h123l-188 -295h114l13 -84h-142v-134z" />
    <glyph glyph-name="brokenbar" unicode="&#xa6;" horiz-adv-x="500" 
d="M25 800h450v-1000h-450v1000z" />
    <glyph glyph-name="section" unicode="&#xa7;" horiz-adv-x="548" 
d="M509 362q0 -28 -9 -53t-22 -44l-91 16q7 13 12 27t5 27q0 23 -18 36t-70 25l-65 15q-36 8 -64 18.5t-48 26.5t-30.5 37.5t-10.5 52.5q0 32 13 57.5t35.5 43.5t54.5 27.5t69 9.5q49 0 87.5 -7t75.5 -22l-15 -91q-35 17 -71.5 26t-72.5 9q-32 0 -48 -12.5t-16 -31.5
q0 -20 16 -30.5t52 -18.5l89 -21q77 -18 109.5 -45t32.5 -78zM38 314q0 28 9.5 53t22.5 44l91 -16q-8 -13 -12.5 -27t-4.5 -27q0 -23 17.5 -36t69.5 -25l66 -15q36 -8 64 -18.5t48 -26.5t30.5 -37.5t10.5 -52.5t-13 -56.5t-35.5 -43.5t-54 -28t-69.5 -10q-50 0 -88 7t-76 22
l15 91q35 -17 72 -26t73 -9q32 0 48 12.5t16 31.5q0 20 -16 30.5t-53 18.5l-88 21q-77 18 -110 45t-33 78z" />
    <glyph glyph-name="dieresis" unicode="&#xa8;" 
d="M264 580v115h115v-115h-115zM75 580v115h115v-115h-115z" />
    <glyph glyph-name="copyright" unicode="&#xa9;" horiz-adv-x="799" 
d="M745 346q0 -80 -25.5 -146t-71 -113.5t-109 -73.5t-140.5 -26t-140.5 26t-109 73t-70.5 112.5t-25 145.5t25.5 146.5t71 113.5t109.5 73t140 26q77 0 140.5 -26t109 -73t70.5 -112.5t25 -145.5zM701 345q0 78 -23.5 138t-64 101t-95.5 62t-118 21q-64 0 -119.5 -21
t-96 -62t-63.5 -101t-23 -138t23.5 -138t64 -101t95.5 -62t119 -21t119 21t95.5 62t63.5 101t23 138zM541 181q-29 -17 -60 -27t-66 -10q-45 0 -81 14.5t-61.5 41.5t-39 64.5t-13.5 83.5q0 45 14 82.5t39.5 64.5t61.5 42t79 15q35 0 64.5 -8.5t55.5 -22.5l-13 -83
q-27 20 -51.5 28.5t-51.5 8.5q-50 0 -78 -35t-28 -92q0 -58 29.5 -92t79.5 -34q26 0 52 8.5t55 28.5z" />
    <glyph glyph-name="ordfeminine" unicode="&#xaa;" horiz-adv-x="391" 
d="M254 370l-6 39q-19 -18 -45 -32t-63 -14q-43 0 -68 24t-25 65q0 59 49.5 86t146.5 38v7q0 26 -15 36t-43 10q-27 0 -53 -7.5t-53 -19.5l-11 66q29 13 61.5 20t73.5 7q64 0 96 -25t32 -82v-218h-77zM51 235v67h278l11 -67h-289zM243 524q-33 -4 -54.5 -10.5t-33.5 -14.5
t-16.5 -18t-4.5 -20q0 -34 36 -34q20 0 38.5 9.5t34.5 25.5v62z" />
    <glyph glyph-name="guillemotleft" unicode="&#xab;" horiz-adv-x="549" 
d="M381 253l127 -241l-86 -19l-172 260l167 252h96zM160 253l127 -241l-86 -19l-173 260l168 252h96z" />
    <glyph glyph-name="logicalnot" unicode="&#xac;" horiz-adv-x="572" 
d="M54 205v101h464v-101h-464z" />
    <glyph glyph-name="registered" unicode="&#xae;" horiz-adv-x="563" 
d="M508 470q0 -52 -17 -94.5t-47 -73t-71.5 -47.5t-91.5 -17t-92 16.5t-72 47t-46.5 73.5t-16.5 95t17 95t47 73.5t72 47.5t91 17q50 0 92 -17t72 -47.5t46.5 -73.5t16.5 -95zM476 470q0 50 -15.5 88t-41.5 64.5t-61.5 40t-76.5 13.5q-40 0 -75.5 -13.5t-62 -40t-41.5 -64.5
t-15 -88q0 -49 15 -87t41.5 -64.5t62 -40t75.5 -13.5q41 0 76.5 13.5t62 40t41.5 64.5t15 87zM339 347l-68 101h-19v-98h-57v257h88q45 0 70 -20t25 -58q0 -52 -49 -71l69 -101zM321 525q0 36 -42 36h-27v-73h26q43 0 43 37z" />
    <glyph glyph-name="macron" unicode="&#xaf;" 
d="M91 597v88h272v-88h-272z" />
    <glyph glyph-name="degree" unicode="&#xb0;" horiz-adv-x="433" 
d="M387 525q0 -37 -12.5 -68t-35.5 -53.5t-54 -35t-69 -12.5q-37 0 -68.5 12.5t-54 35t-35 53.5t-12.5 68t12.5 68.5t35 54t54 35.5t68.5 13q38 0 69 -13t54 -35.5t35.5 -54t12.5 -68.5zM307 525q0 41 -25.5 68t-65.5 27q-39 0 -64.5 -27t-25.5 -68q0 -42 25.5 -68t64.5 -26
q40 0 65.5 26t25.5 68z" />
    <glyph glyph-name="plusminus" unicode="&#xb1;" horiz-adv-x="579" 
d="M458 0v-167l-117 -19v186h-312v84l284 437h145v-428h99v-93h-99zM341 393l-195 -300h195v300z" />
    <glyph glyph-name="twosuperior" unicode="&#xb2;" horiz-adv-x="500" 
d="M25 800h450v-1000h-450v1000z" />
    <glyph glyph-name="threesuperior" unicode="&#xb3;" horiz-adv-x="500" 
d="M25 800h450v-1000h-450v1000z" />
    <glyph glyph-name="acute" unicode="&#xb4;" 
d="M204 577h-79l74 151l145 -27z" />
    <glyph glyph-name="mu" unicode="&#xb5;" horiz-adv-x="572" 
d="M285 188l-151 -153l-68 68l153 151l-154 152l71 70l151 -153l151 153l68 -68l-153 -152l154 -151l-71 -70z" />
    <glyph glyph-name="paragraph" unicode="&#xb6;" horiz-adv-x="540" 
d="M385 -181v625h-67v-152l-35 -211q-112 5 -178 58.5t-66 159.5q0 103 66 159t181 56h185v-682z" />
    <glyph glyph-name="periodcentered" unicode="&#xb7;" horiz-adv-x="253" 
d="M57 212v151h138v-151h-138z" />
    <glyph glyph-name="cedilla" unicode="&#xb8;" 
d="M193 -182h-79l65 135l146 -28z" />
    <glyph glyph-name="onesuperior" unicode="&#xb9;" horiz-adv-x="500" 
d="M25 800h450v-1000h-450v1000z" />
    <glyph glyph-name="ordmasculine" unicode="&#xba;" horiz-adv-x="393" 
d="M355 529q0 -39 -12 -70t-33 -52t-50 -32.5t-64 -11.5q-34 0 -63 11.5t-50 32.5t-33 52t-12 70t12 69.5t33 52t50 33t63 11.5q35 0 64 -11.5t50 -33t33 -52t12 -69.5zM49 235v67h287l11 -67h-298zM265 529q0 39 -17 67t-52 28q-34 0 -51 -28t-17 -67q0 -40 17 -67.5
t51 -27.5q35 0 52 27.5t17 67.5z" />
    <glyph glyph-name="guillemotright" unicode="&#xbb;" horiz-adv-x="549" 
d="M354 0h-96l131 252l-125 241l87 19l169 -260zM133 0h-96l131 252l-125 241l87 19l170 -260z" />
    <glyph glyph-name="onequarter" unicode="&#xbc;" horiz-adv-x="500" 
d="M25 800h450v-1000h-450v1000z" />
    <glyph glyph-name="onehalf" unicode="&#xbd;" horiz-adv-x="500" 
d="M25 800h450v-1000h-450v1000z" />
    <glyph glyph-name="threequarters" unicode="&#xbe;" horiz-adv-x="500" 
d="M25 800h450v-1000h-450v1000z" />
    <glyph glyph-name="questiondown" unicode="&#xbf;" horiz-adv-x="512" 
d="M355 690v-146h-132v146h132zM247 456l73 16l12 -159l-31 -12q-72 -28 -103 -53.5t-31 -67.5q0 -38 27.5 -59.5t72.5 -21.5q54 0 102 21.5t91 54.5l17 -116q-45 -32 -99.5 -52t-123.5 -20q-99 0 -156.5 48.5t-57.5 135.5q0 42 13.5 74.5t39 58t63 45.5t85.5 38z" />
    <glyph glyph-name="Agrave" unicode="&#xc0;" horiz-adv-x="695" 
d="M544 -7l-65 182h-264l-63 -175h-131l259 693h141l253 -676zM346 552l-95 -269h191zM310 738l-141 124l147 27l73 -151h-79z" />
    <glyph glyph-name="Aacute" unicode="&#xc1;" horiz-adv-x="695" 
d="M544 -7l-65 182h-264l-63 -175h-131l259 693h141l253 -676zM346 552l-95 -269h191zM389 738h-79l74 151l145 -27z" />
    <glyph glyph-name="Acircumflex" unicode="&#xc2;" horiz-adv-x="695" 
d="M544 -7l-65 182h-264l-63 -175h-131l259 693h141l253 -676zM346 552l-95 -269h191zM430 725l-82 69l-79 -65h-76l100 144h112l94 -134z" />
    <glyph glyph-name="Atilde" unicode="&#xc3;" horiz-adv-x="695" 
d="M544 -7l-65 182h-264l-63 -175h-131l259 693h141l253 -676zM346 552l-95 -269h191zM509 866q-8 -67 -30.5 -96.5t-58.5 -29.5q-20 0 -35.5 5.5t-35.5 15.5q-29 14 -41.5 18.5t-23.5 4.5t-18.5 -9.5t-13.5 -38.5l-65 14q8 68 30.5 97.5t58.5 29.5q20 0 35.5 -5.5
t35.5 -15.5q29 -14 41.5 -19t23.5 -5t18.5 10t13.5 38z" />
    <glyph glyph-name="Adieresis" unicode="&#xc4;" horiz-adv-x="695" 
d="M544 -7l-65 182h-264l-63 -175h-131l259 693h141l253 -676zM346 552l-95 -269h191zM385 741v115h115v-115h-115zM196 741v115h115v-115h-115z" />
    <glyph glyph-name="Aring" unicode="&#xc5;" horiz-adv-x="695" 
d="M544 -7l-65 182h-264l-63 -175h-131l259 693h141l253 -676zM346 552l-95 -269h191zM466 841q0 -45 -31.5 -75t-86.5 -30t-86.5 30t-31.5 75t31.5 75.5t86.5 30.5t86.5 -30.5t31.5 -75.5zM402 841q0 24 -15 41.5t-39 17.5t-39 -17.5t-15 -41.5q0 -25 15 -42t39 -17t39 17
t15 42z" />
    <glyph glyph-name="AE" unicode="&#xc6;" horiz-adv-x="894" 
d="M451 0v175h-217l-94 -175h-138l368 690h479v-112h-271v-162h209l18 -114h-227v-190h281v-112h-408zM451 598l-164 -315h164v315z" />
    <glyph glyph-name="Ccedilla" unicode="&#xc7;" horiz-adv-x="625" 
d="M576 47q-42 -26 -93 -42.5t-110 -16.5q-75 0 -135.5 25.5t-103 72t-65.5 112.5t-23 146t23.5 146t66.5 113t103 73t133 26q60 0 107.5 -13.5t85.5 -36.5l-19 -125q-34 26 -75.5 43.5t-92.5 17.5q-92 0 -144.5 -65t-52.5 -178q0 -115 55 -178.5t147 -63.5q48 0 91.5 16
t83.5 42zM305 -182h-79l65 135l146 -28z" />
    <glyph glyph-name="Egrave" unicode="&#xc8;" horiz-adv-x="516" 
d="M73 0v690h401v-112h-270v-162h208l18 -114h-226v-190h280v-112h-411zM254 738l-141 124l147 27l73 -151h-79z" />
    <glyph glyph-name="Eacute" unicode="&#xc9;" horiz-adv-x="516" 
d="M73 0v690h401v-112h-270v-162h208l18 -114h-226v-190h280v-112h-411zM275 738h-79l74 151l145 -27z" />
    <glyph glyph-name="Ecircumflex" unicode="&#xca;" horiz-adv-x="516" 
d="M73 0v690h401v-112h-270v-162h208l18 -114h-226v-190h280v-112h-411zM349 734l-82 69l-79 -65h-76l100 144h112l94 -134z" />
    <glyph glyph-name="Edieresis" unicode="&#xcb;" horiz-adv-x="516" 
d="M73 0v690h401v-112h-270v-162h208l18 -114h-226v-190h280v-112h-411zM304 741v115h115v-115h-115zM115 741v115h115v-115h-115z" />
    <glyph glyph-name="Igrave" unicode="&#xcc;" horiz-adv-x="287" 
d="M78 0v690h133v-690h-133zM108 738l-141 124l147 27l73 -151h-79z" />
    <glyph glyph-name="Iacute" unicode="&#xcd;" horiz-adv-x="287" 
d="M78 0v690h133v-690h-133zM180 738h-79l74 151l145 -27z" />
    <glyph glyph-name="Icircumflex" unicode="&#xce;" horiz-adv-x="287" 
d="M78 0v690h133v-690h-133zM226 725l-82 69l-79 -65h-76l100 144h112l94 -134z" />
    <glyph glyph-name="Idieresis" unicode="&#xcf;" horiz-adv-x="287" 
d="M78 0v690h133v-690h-133zM181 741v115h115v-115h-115zM-8 741v115h115v-115h-115z" />
    <glyph glyph-name="Eth" unicode="&#xd0;" horiz-adv-x="732" 
d="M685 346q0 -77 -24 -140.5t-70.5 -109.5t-114 -71t-155.5 -25h-218v300h-70l-19 114h89v276h218q90 0 158 -25t114 -70.5t69 -109t23 -139.5zM551 345q0 60 -16.5 104t-47 73.5t-73 44t-94.5 14.5h-88v-168h149v-113h-149v-191h87q107 0 169.5 57.5t62.5 178.5z" />
    <glyph glyph-name="Ntilde" unicode="&#xd1;" horiz-adv-x="704" 
d="M521 0l-325 475v-475h-123v690h125l310 -452v452h123v-690h-110zM515 857q-8 -67 -30.5 -96.5t-58.5 -29.5q-20 0 -35.5 5.5t-35.5 15.5q-29 14 -41.5 18.5t-23.5 4.5t-18.5 -9.5t-13.5 -38.5l-65 14q8 68 30.5 97.5t58.5 29.5q20 0 35.5 -5.5t35.5 -15.5
q29 -14 41.5 -19t23.5 -5t18.5 10t13.5 38z" />
    <glyph glyph-name="Ograve" unicode="&#xd2;" horiz-adv-x="740" 
d="M694 346q0 -80 -23 -146t-65.5 -113.5t-102.5 -73.5t-134 -26q-73 0 -133 26t-102 73t-65 112.5t-23 145.5t23 146.5t65.5 113.5t102.5 73t134 26t134 -26t102 -73t64.5 -112.5t22.5 -145.5zM560 345q0 57 -13 102.5t-37.5 78t-60 50t-79.5 17.5t-79 -17.5t-59.5 -50
t-37.5 -78t-13 -102.5t13 -102.5t37.5 -78t59.5 -50t79 -17.5q45 0 80 17.5t59.5 50t37.5 78t13 102.5zM340 747l-141 124l147 27l73 -151h-79z" />
    <glyph glyph-name="Oacute" unicode="&#xd3;" horiz-adv-x="740" 
d="M694 346q0 -80 -23 -146t-65.5 -113.5t-102.5 -73.5t-134 -26q-73 0 -133 26t-102 73t-65 112.5t-23 145.5t23 146.5t65.5 113.5t102.5 73t134 26t134 -26t102 -73t64.5 -112.5t22.5 -145.5zM560 345q0 57 -13 102.5t-37.5 78t-60 50t-79.5 17.5t-79 -17.5t-59.5 -50
t-37.5 -78t-13 -102.5t13 -102.5t37.5 -78t59.5 -50t79 -17.5q45 0 80 17.5t59.5 50t37.5 78t13 102.5zM391 747h-79l74 151l145 -27z" />
    <glyph glyph-name="Ocircumflex" unicode="&#xd4;" horiz-adv-x="740" 
d="M694 346q0 -80 -23 -146t-65.5 -113.5t-102.5 -73.5t-134 -26q-73 0 -133 26t-102 73t-65 112.5t-23 145.5t23 146.5t65.5 113.5t102.5 73t134 26t134 -26t102 -73t64.5 -112.5t22.5 -145.5zM560 345q0 57 -13 102.5t-37.5 78t-60 50t-79.5 17.5t-79 -17.5t-59.5 -50
t-37.5 -78t-13 -102.5t13 -102.5t37.5 -78t59.5 -50t79 -17.5q45 0 80 17.5t59.5 50t37.5 78t13 102.5zM450 736l-82 69l-79 -65h-76l100 144h112l94 -134z" />
    <glyph glyph-name="Otilde" unicode="&#xd5;" horiz-adv-x="740" 
d="M694 346q0 -80 -23 -146t-65.5 -113.5t-102.5 -73.5t-134 -26q-73 0 -133 26t-102 73t-65 112.5t-23 145.5t23 146.5t65.5 113.5t102.5 73t134 26t134 -26t102 -73t64.5 -112.5t22.5 -145.5zM560 345q0 57 -13 102.5t-37.5 78t-60 50t-79.5 17.5t-79 -17.5t-59.5 -50
t-37.5 -78t-13 -102.5t13 -102.5t37.5 -78t59.5 -50t79 -17.5q45 0 80 17.5t59.5 50t37.5 78t13 102.5zM529 878q-8 -67 -30.5 -96.5t-58.5 -29.5q-20 0 -35.5 5.5t-35.5 15.5q-29 14 -41.5 18.5t-23.5 4.5t-18.5 -9.5t-13.5 -38.5l-65 14q8 68 30.5 97.5t58.5 29.5
q20 0 35.5 -5.5t35.5 -15.5q29 -14 41.5 -19t23.5 -5t18.5 10t13.5 38z" />
    <glyph glyph-name="Odieresis" unicode="&#xd6;" horiz-adv-x="740" 
d="M694 346q0 -80 -23 -146t-65.5 -113.5t-102.5 -73.5t-134 -26q-73 0 -133 26t-102 73t-65 112.5t-23 145.5t23 146.5t65.5 113.5t102.5 73t134 26t134 -26t102 -73t64.5 -112.5t22.5 -145.5zM560 345q0 57 -13 102.5t-37.5 78t-60 50t-79.5 17.5t-79 -17.5t-59.5 -50
t-37.5 -78t-13 -102.5t13 -102.5t37.5 -78t59.5 -50t79 -17.5q45 0 80 17.5t59.5 50t37.5 78t13 102.5zM405 750v115h115v-115h-115zM216 750v115h115v-115h-115z" />
    <glyph glyph-name="multiply" unicode="&#xd7;" horiz-adv-x="500" 
d="M25 800h450v-1000h-450v1000z" />
    <glyph glyph-name="Oslash" unicode="&#xd8;" horiz-adv-x="740" 
d="M623 581q35 -45 53 -104.5t18 -131.5q0 -80 -23 -146t-65.5 -113t-102 -73t-133.5 -26q-57 0 -104.5 15.5t-86.5 44.5l-47 -56l-93 20l79 97q-35 46 -53.5 105.5t-18.5 131.5q0 80 23 146t65.5 113t102.5 73t133 26q57 0 105.5 -15.5t87.5 -44.5l46 56l93 -20zM489 553
q-23 21 -53 32.5t-66 11.5q-45 0 -80 -18t-60 -51t-38 -79.5t-13 -103.5q0 -83 28 -139zM562 345q0 82 -27 139l-283 -347q23 -21 53 -32.5t65 -11.5q45 0 80.5 18t60.5 51t38 79.5t13 103.5z" />
    <glyph glyph-name="Ugrave" unicode="&#xd9;" horiz-adv-x="694" 
d="M623 270q0 -69 -20.5 -121.5t-57.5 -88t-88.5 -54t-114.5 -18.5t-114 18.5t-87 53.5t-55.5 87.5t-19.5 119.5v423h132v-416q0 -79 36 -125t109 -46q74 0 110.5 44t36.5 124v419h133v-420zM319 724l-141 124l147 27l73 -151h-79z" />
    <glyph glyph-name="Uacute" unicode="&#xda;" horiz-adv-x="694" 
d="M623 270q0 -69 -20.5 -121.5t-57.5 -88t-88.5 -54t-114.5 -18.5t-114 18.5t-87 53.5t-55.5 87.5t-19.5 119.5v423h132v-416q0 -79 36 -125t109 -46q74 0 110.5 44t36.5 124v419h133v-420zM366 724h-79l74 151l145 -27z" />
    <glyph glyph-name="Ucircumflex" unicode="&#xdb;" horiz-adv-x="694" 
d="M623 270q0 -69 -20.5 -121.5t-57.5 -88t-88.5 -54t-114.5 -18.5t-114 18.5t-87 53.5t-55.5 87.5t-19.5 119.5v423h132v-416q0 -79 36 -125t109 -46q74 0 110.5 44t36.5 124v419h133v-420zM427 725l-82 69l-79 -65h-76l100 144h112l94 -134z" />
    <glyph glyph-name="Udieresis" unicode="&#xdc;" horiz-adv-x="694" 
d="M623 270q0 -69 -20.5 -121.5t-57.5 -88t-88.5 -54t-114.5 -18.5t-114 18.5t-87 53.5t-55.5 87.5t-19.5 119.5v423h132v-416q0 -79 36 -125t109 -46q74 0 110.5 44t36.5 124v419h133v-420zM382 732v115h115v-115h-115zM193 732v115h115v-115h-115z" />
    <glyph glyph-name="Yacute" unicode="&#xdd;" horiz-adv-x="654" 
d="M390 264v-264h-133v263l-241 412l138 22l175 -312l169 305h142zM356 720h-79l74 151l145 -27z" />
    <glyph glyph-name="Thorn" unicode="&#xde;" horiz-adv-x="559" 
d="M528 359q0 -56 -19 -98t-53.5 -70t-83.5 -42t-108 -14h-59v-135h-132v690h132v-119h70q118 0 185.5 -53.5t67.5 -158.5zM398 356q0 109 -130 109h-63v-224h58q64 0 99.5 27.5t35.5 87.5z" />
    <glyph glyph-name="germandbls" unicode="&#xdf;" horiz-adv-x="879" 
d="M413 154q0 -75 -53 -118t-142 -43q-51 0 -98.5 10.5t-88.5 27.5l18 99q38 -18 85.5 -31t86.5 -13q40 0 62 14.5t22 40.5q0 25 -18.5 38.5t-66.5 29.5q-42 13 -74 26.5t-54 31.5t-33 42t-11 57q0 35 13.5 63.5t37.5 49t57 31.5t72 11q50 0 90.5 -9.5t69.5 -22.5l-17 -100
q-35 17 -72 27.5t-72 10.5q-33 0 -52 -14.5t-19 -34.5q0 -24 19.5 -36.5t70.5 -29.5q44 -14 76 -28.5t52 -32.5t29.5 -41.5t9.5 -55.5zM853 154q0 -75 -53 -118t-142 -43q-51 0 -98.5 10.5t-88.5 27.5l18 99q38 -18 85.5 -31t86.5 -13q40 0 62 14.5t22 40.5q0 25 -18.5 38.5
t-66.5 29.5q-42 13 -74 26.5t-54 31.5t-33 42t-11 57q0 35 13.5 63.5t37.5 49t57 31.5t72 11q50 0 90.5 -9.5t69.5 -22.5l-17 -100q-35 17 -72 27.5t-72 10.5q-33 0 -52 -14.5t-19 -34.5q0 -24 19.5 -36.5t70.5 -29.5q44 -14 76 -28.5t52 -32.5t29.5 -41.5t9.5 -55.5z" />
    <glyph glyph-name="agrave" unicode="&#xe0;" horiz-adv-x="546" 
d="M274 419h-3l-70 -210h143zM131 0h-114l189 518h143l184 -503l-116 -23l-41 123h-206zM240 577l-141 124l147 27l73 -151h-79z" />
    <glyph glyph-name="aacute" unicode="&#xe1;" horiz-adv-x="546" 
d="M308 577h-79l74 151l145 -27zM272 419h-3l-70 -210h143zM129 0h-114l189 518h143l184 -503l-116 -23l-41 123h-206z" />
    <glyph glyph-name="acircumflex" unicode="&#xe2;" horiz-adv-x="546" 
d="M355 570l-82 69l-79 -65h-76l100 144h112l94 -134zM272 419h-3l-70 -210h143zM129 0h-114l189 518h143l184 -503l-116 -23l-41 123h-206z" />
    <glyph glyph-name="atilde" unicode="&#xe3;" horiz-adv-x="546" 
d="M434 705q-8 -67 -30.5 -96.5t-58.5 -29.5q-20 0 -35.5 5.5t-35.5 15.5q-29 14 -41.5 18.5t-23.5 4.5t-18.5 -9.5t-13.5 -38.5l-65 14q8 68 30.5 97.5t58.5 29.5q20 0 35.5 -5.5t35.5 -15.5q29 -14 41.5 -19t23.5 -5t18.5 10t13.5 38zM272 419h-3l-70 -210h143zM129 0
h-114l189 518h143l184 -503l-116 -23l-41 123h-206z" />
    <glyph glyph-name="adieresis" unicode="&#xe4;" horiz-adv-x="546" 
d="M122 580v115h115v-115h-115zM311 580v115h115v-115h-115zM272 419h-3l-70 -210h143zM129 0h-114l189 518h143l184 -503l-116 -23l-41 123h-206z" />
    <glyph glyph-name="aring" unicode="&#xe5;" horiz-adv-x="546" 
d="M328 680q0 24 -15 41.5t-39 17.5t-39 -17.5t-15 -41.5q0 -25 15 -42t39 -17t39 17t15 42zM392 680q0 -45 -31.5 -75t-86.5 -30t-86.5 30t-31.5 75t31.5 75.5t86.5 30.5t86.5 -30.5t31.5 -75.5zM272 419h-3l-70 -210h143zM129 0h-114l189 518h143l184 -503l-116 -23
l-41 123h-206z" />
    <glyph glyph-name="ae" unicode="&#xe6;" horiz-adv-x="739" 
d="M358 436l-119 -227h119v227zM132 0h-124l280 513h404v-95h-217v-107h169l15 -94h-184v-122h224v-95h-341v115h-165z" />
    <glyph glyph-name="ccedilla" unicode="&#xe7;" horiz-adv-x="473" 
d="M439 31q-31 -19 -69.5 -30t-80.5 -11q-57 0 -103.5 18.5t-79.5 53t-51 83.5t-18 110t18.5 110.5t51.5 84.5t79 54t100 19q47 0 81.5 -9.5t63.5 -26.5l-16 -105q-24 18 -53.5 29.5t-64.5 11.5q-63 0 -100.5 -43t-37.5 -124q0 -80 38.5 -123.5t101.5 -43.5q34 0 65.5 11
t59.5 29zM212 -182h-79l65 135l146 -28z" />
    <glyph glyph-name="egrave" unicode="&#xe8;" horiz-adv-x="443" 
d="M229 577l-141 124l147 27l73 -151h-79zM49 0v513h334v-95h-217v-107h169l14 -94h-183v-122h223v-95h-340z" />
    <glyph glyph-name="eacute" unicode="&#xe9;" horiz-adv-x="443" 
d="M63 0v513h334v-95h-217v-107h169l14 -94h-183v-122h223v-95h-340zM256 577h-79l74 151l145 -27z" />
    <glyph glyph-name="ecircumflex" unicode="&#xea;" horiz-adv-x="443" 
d="M63 0v513h334v-95h-217v-107h169l14 -94h-183v-122h223v-95h-340zM312 573l-82 69l-79 -65h-76l100 144h112l94 -134z" />
    <glyph glyph-name="edieresis" unicode="&#xeb;" horiz-adv-x="443" 
d="M63 0v513h334v-95h-217v-107h169l14 -94h-183v-122h223v-95h-340zM264 580v115h115v-115h-115zM75 580v115h115v-115h-115z" />
    <glyph glyph-name="igrave" unicode="&#xec;" horiz-adv-x="251" 
d="M67 0v513h118v-513h-118zM90 577l-141 124l147 27l73 -151h-79z" />
    <glyph glyph-name="iacute" unicode="&#xed;" horiz-adv-x="251" 
d="M67 0v513h118v-513h-118zM160 577h-79l74 151l145 -27z" />
    <glyph glyph-name="icircumflex" unicode="&#xee;" horiz-adv-x="251" 
d="M67 0v513h118v-513h-118zM208 573l-82 69l-79 -65h-76l100 144h112l94 -134z" />
    <glyph glyph-name="idieresis" unicode="&#xef;" horiz-adv-x="251" 
d="M67 0v513h118v-513h-118zM163 580v115h115v-115h-115zM-26 580v115h115v-115h-115z" />
    <glyph glyph-name="eth" unicode="&#xf0;" horiz-adv-x="586" 
d="M429 256q0 78 -41 118.5t-112 40.5h-57v-103h113v-102h-113v-112h55q73 0 114 40t41 118zM549 257q0 -55 -18 -102.5t-53.5 -81.5t-86.5 -53.5t-117 -19.5h-171v208h-70l-19 106h89v199h169q68 0 120 -19t87 -52.5t52.5 -80.5t17.5 -104z" />
    <glyph glyph-name="ntilde" unicode="&#xf1;" horiz-adv-x="559" 
d="M394 0l-224 338v-338h-107v513h114l212 -320v320h107v-513h-102zM441 705q-8 -67 -30.5 -96.5t-58.5 -29.5q-20 0 -35.5 5.5t-35.5 15.5q-29 14 -41.5 18.5t-23.5 4.5t-18.5 -9.5t-13.5 -38.5l-65 14q8 68 30.5 97.5t58.5 29.5q20 0 35.5 -5.5t35.5 -15.5
q29 -14 41.5 -19t23.5 -5t18.5 10t13.5 38z" />
    <glyph glyph-name="ograve" unicode="&#xf2;" horiz-adv-x="566" 
d="M256 577l-141 124l147 27l73 -151h-79zM523 257q0 -61 -19.5 -110.5t-52.5 -84t-78 -53.5t-96 -19t-96 18.5t-78 53t-52.5 84t-19.5 110.5q0 62 19.5 111t53 84t78 53.5t95.5 18.5t96 -18.5t78.5 -53t52.5 -83.5t19 -111zM404 256q0 36 -8.5 67t-25 54t-40 36t-53.5 13
t-54 -13t-40 -35.5t-24.5 -53.5t-8.5 -67t8.5 -67t25 -54t40 -36.5t53.5 -13.5t54 13t40 36t24.5 54t8.5 67z" />
    <glyph glyph-name="oacute" unicode="&#xf3;" horiz-adv-x="566" 
d="M529 257q0 -61 -19.5 -110.5t-52.5 -84t-78 -53.5t-96 -19t-96 18.5t-78 53t-52.5 84t-19.5 110.5q0 62 19.5 111t53 84t78 53.5t95.5 18.5t96 -18.5t78.5 -53t52.5 -83.5t19 -111zM410 256q0 36 -8.5 67t-25 54t-40 36t-53.5 13t-54 -13t-40 -35.5t-24.5 -53.5t-8.5 -67
t8.5 -67t25 -54t40 -36.5t53.5 -13.5t54 13t40 36t24.5 54t8.5 67zM315 577h-79l74 151l145 -27z" />
    <glyph glyph-name="ocircumflex" unicode="&#xf4;" horiz-adv-x="566" 
d="M529 257q0 -61 -19.5 -110.5t-52.5 -84t-78 -53.5t-96 -19t-96 18.5t-78 53t-52.5 84t-19.5 110.5q0 62 19.5 111t53 84t78 53.5t95.5 18.5t96 -18.5t78.5 -53t52.5 -83.5t19 -111zM410 256q0 36 -8.5 67t-25 54t-40 36t-53.5 13t-54 -13t-40 -35.5t-24.5 -53.5t-8.5 -67
t8.5 -67t25 -54t40 -36.5t53.5 -13.5t54 13t40 36t24.5 54t8.5 67zM367 573l-82 69l-79 -65h-76l100 144h112l94 -134z" />
    <glyph glyph-name="otilde" unicode="&#xf5;" horiz-adv-x="566" 
d="M529 257q0 -61 -19.5 -110.5t-52.5 -84t-78 -53.5t-96 -19t-96 18.5t-78 53t-52.5 84t-19.5 110.5q0 62 19.5 111t53 84t78 53.5t95.5 18.5t96 -18.5t78.5 -53t52.5 -83.5t19 -111zM410 256q0 36 -8.5 67t-25 54t-40 36t-53.5 13t-54 -13t-40 -35.5t-24.5 -53.5t-8.5 -67
t8.5 -67t25 -54t40 -36.5t53.5 -13.5t54 13t40 36t24.5 54t8.5 67zM444 705q-8 -67 -30.5 -96.5t-58.5 -29.5q-20 0 -35.5 5.5t-35.5 15.5q-29 14 -41.5 18.5t-23.5 4.5t-18.5 -9.5t-13.5 -38.5l-65 14q8 68 30.5 97.5t58.5 29.5q20 0 35.5 -5.5t35.5 -15.5q29 -14 41.5 -19
t23.5 -5t18.5 10t13.5 38z" />
    <glyph glyph-name="odieresis" unicode="&#xf6;" horiz-adv-x="566" 
d="M529 257q0 -61 -19.5 -110.5t-52.5 -84t-78 -53.5t-96 -19t-96 18.5t-78 53t-52.5 84t-19.5 110.5q0 62 19.5 111t53 84t78 53.5t95.5 18.5t96 -18.5t78.5 -53t52.5 -83.5t19 -111zM410 256q0 36 -8.5 67t-25 54t-40 36t-53.5 13t-54 -13t-40 -35.5t-24.5 -53.5t-8.5 -67
t8.5 -67t25 -54t40 -36.5t53.5 -13.5t54 13t40 36t24.5 54t8.5 67zM320 580v115h115v-115h-115zM131 580v115h115v-115h-115z" />
    <glyph glyph-name="divide" unicode="&#xf7;" horiz-adv-x="572" 
d="M228 387v118h116v-118h-116zM54 208v95h464v-95h-464zM228 6v118h116v-118h-116z" />
    <glyph glyph-name="oslash" unicode="&#xf8;" horiz-adv-x="567" 
d="M530 257q0 -61 -19.5 -110.5t-53 -84t-78.5 -53.5t-96 -19q-79 0 -139 43l-34 -42l-87 19l64 80q-23 32 -36.5 74t-13.5 92q0 62 19.5 111t53 84t78.5 53.5t96 18.5q72 0 131 -37l28 36l87 -20l-56 -71q26 -32 41 -76t15 -98zM351 408q-29 20 -67 20q-31 0 -55 -13
t-40 -36t-24.5 -54.5t-8.5 -67.5q0 -44 12 -77zM411 256q0 26 -4 48t-14 40l-186 -233q30 -27 77 -27q31 0 54.5 13t39.5 36.5t24.5 55t8.5 67.5z" />
    <glyph glyph-name="ugrave" unicode="&#xf9;" horiz-adv-x="555" 
d="M251 577l-141 124l147 27l73 -151h-79zM485 203q0 -106 -58 -159.5t-159 -53.5q-100 0 -156.5 53.5t-56.5 156.5v313h117v-311q0 -52 23 -82.5t74 -30.5q50 0 74 28.5t24 82.5v313h118v-310z" />
    <glyph glyph-name="uacute" unicode="&#xfa;" horiz-adv-x="555" 
d="M490 203q0 -106 -58 -159.5t-159 -53.5q-100 0 -156.5 53.5t-56.5 156.5v313h117v-311q0 -52 23 -82.5t74 -30.5q50 0 74 28.5t24 82.5v313h118v-310zM295 577h-79l74 151l145 -27z" />
    <glyph glyph-name="ucircumflex" unicode="&#xfb;" horiz-adv-x="555" 
d="M490 203q0 -106 -58 -159.5t-159 -53.5q-100 0 -156.5 53.5t-56.5 156.5v313h117v-311q0 -52 23 -82.5t74 -30.5q50 0 74 28.5t24 82.5v313h118v-310zM358 573l-82 69l-79 -65h-76l100 144h112l94 -134z" />
    <glyph glyph-name="udieresis" unicode="&#xfc;" horiz-adv-x="555" 
d="M490 203q0 -106 -58 -159.5t-159 -53.5q-100 0 -156.5 53.5t-56.5 156.5v313h117v-311q0 -52 23 -82.5t74 -30.5q50 0 74 28.5t24 82.5v313h118v-310zM313 580v115h115v-115h-115zM124 580v115h115v-115h-115z" />
    <glyph glyph-name="yacute" unicode="&#xfd;" horiz-adv-x="503" 
d="M309 194v-194h-121v190l-179 311l123 20l120 -222l117 214h126zM279 571h-79l74 151l145 -27z" />
    <glyph glyph-name="thorn" unicode="&#xfe;" horiz-adv-x="465" 
d="M438 267q0 -84 -55 -128t-152 -44h-50v-95h-117v513h117v-81h59q91 0 144.5 -42t53.5 -123zM326 264q0 37 -23.5 57t-70.5 20h-51v-156h50q95 0 95 79z" />
    <glyph glyph-name="ydieresis" unicode="&#xff;" horiz-adv-x="499" 
d="M309 194v-194h-121v190l-179 311l123 20l120 -222l117 214h126zM288 580v115h115v-115h-115zM99 580v115h115v-115h-115z" />
    <glyph glyph-name="dotlessi" unicode="&#x131;" horiz-adv-x="251" 
d="M67 0v513h118v-513h-118z" />
    <glyph glyph-name="Lslash" unicode="&#x141;" horiz-adv-x="505" 
d="M103 0v292l-71 -17l-18 111l89 22v282h131v-248l148 36v-114l-148 -36v-211h230l19 -117h-380z" />
    <glyph glyph-name="lslash" unicode="&#x142;" horiz-adv-x="449" 
d="M105 0v199l-71 -15l-17 102l88 19v208h120v-182l138 31v-106l-138 -31v-124h180l15 -101h-315z" />
    <glyph glyph-name="OE" unicode="&#x152;" horiz-adv-x="890" 
d="M415 0q-90 0 -158.5 25t-115 70t-70 108.5t-23.5 140.5t24 140.5t70 109.5t114 71t156 25h433v-112h-269v-162h208l17 -114h-225v-190h279v-112h-440zM446 581h-32q-108 0 -170 -57t-62 -179q0 -59 16.5 -103.5t47 -74t73 -44t94.5 -14.5h33v472z" />
    <glyph glyph-name="oe" unicode="&#x153;" horiz-adv-x="723" 
d="M313 0q-68 0 -120 19t-87 52.5t-52.5 80.5t-17.5 104q0 56 18.5 103t53.5 81t86.5 53.5t117.5 19.5h365v-95h-217v-107h168l15 -94h-183v-122h223v-95h-370zM312 415q-72 0 -113 -40t-41 -118t41 -118.5t112 -40.5h31v317h-30z" />
    <glyph glyph-name="Scaron" unicode="&#x160;" horiz-adv-x="533" 
d="M493 194q0 -49 -17.5 -87t-48.5 -63.5t-73.5 -38.5t-92.5 -13q-63 0 -117 13t-100 35l20 121q44 -26 95.5 -43.5t103.5 -17.5q47 0 75 21t28 60q0 20 -5 35t-18.5 28t-36.5 25.5t-58 26.5q-51 21 -88 40.5t-60.5 43.5t-34.5 54.5t-11 73.5q0 44 16.5 79.5t46.5 60
t71 37.5t89 13q59 0 101.5 -11t80.5 -31l-20 -120q-38 25 -80 39.5t-83 14.5q-48 0 -71.5 -20t-23.5 -51q0 -18 5 -31.5t18 -25.5t35 -23.5t55 -25.5q54 -21 92 -42t61.5 -46.5t34.5 -57t11 -73.5zM326 753h-112l-94 134l69 14l82 -69l79 65h76z" />
    <glyph glyph-name="scaron" unicode="&#x161;" horiz-adv-x="433" 
d="M413 154q0 -75 -53 -118t-142 -43q-51 0 -98.5 10.5t-88.5 27.5l18 99q38 -18 85.5 -31t86.5 -13q40 0 62 14.5t22 40.5q0 25 -18.5 38.5t-66.5 29.5q-42 13 -74 26.5t-54 31.5t-33 42t-11 57q0 35 13.5 63.5t37.5 49t57 31.5t72 11q50 0 90.5 -9.5t69.5 -22.5l-17 -100
q-35 17 -72 27.5t-72 10.5q-33 0 -52 -14.5t-19 -34.5q0 -24 19.5 -36.5t70.5 -29.5q44 -14 76 -28.5t52 -32.5t29.5 -41.5t9.5 -55.5zM276 577h-112l-94 134l69 14l82 -69l79 65h76z" />
    <glyph glyph-name="Ydieresis" unicode="&#x178;" horiz-adv-x="654" 
d="M390 264v-264h-133v263l-241 412l138 22l175 -312l169 305h142zM365 732v115h115v-115h-115zM176 732v115h115v-115h-115z" />
    <glyph glyph-name="Zcaron" unicode="&#x17d;" horiz-adv-x="609" 
d="M44 0v97l357 484h-325l-17 109h503v-97l-357 -484h349l17 -109h-527zM367 744h-112l-94 134l69 14l82 -69l79 65h76z" />
    <glyph glyph-name="zcaron" unicode="&#x17e;" horiz-adv-x="478" 
d="M33 0v81l266 340h-234l-14 92h388v-80l-266 -342h253l14 -91h-407zM295 577h-112l-94 134l69 14l82 -69l79 65h76z" />
    <glyph glyph-name="florin" unicode="&#x192;" horiz-adv-x="420" 
d="M124 294l2 11.5t4 25.5q3 16 6 37q14 85 58 120t125 35q20 0 35 -1t28 -3v-102q-9 2 -22 3t-26 1q-34 0 -51.5 -17t-24.5 -56l-9 -54h95v-100h-111l-57 -359l-127 -21l60 380h-71l15 100h71z" />
    <glyph glyph-name="circumflex" unicode="&#x2c6;" 
d="M309 573l-82 69l-79 -65h-76l100 144h112l94 -134z" />
    <glyph glyph-name="caron" unicode="&#x2c7;" 
d="M282 577h-112l-94 134l69 14l82 -69l79 65h76z" />
    <glyph glyph-name="breve" unicode="&#x2d8;" 
d="M371 724q-6 -70 -42.5 -108.5t-102.5 -38.5q-61 0 -97.5 36.5t-44.5 102.5l73 14q6 -36 23 -52t48 -16q58 0 68 62h75z" />
    <glyph glyph-name="dotaccent" unicode="&#x2d9;" 
d="M168 580v115h118v-115h-118z" />
    <glyph glyph-name="ring" unicode="&#x2da;" 
d="M345 680q0 -45 -31.5 -75t-86.5 -30t-86.5 30t-31.5 75t31.5 75.5t86.5 30.5t86.5 -30.5t31.5 -75.5zM281 680q0 24 -15 41.5t-39 17.5t-39 -17.5t-15 -41.5q0 -25 15 -42t39 -17t39 17t15 42z" />
    <glyph glyph-name="ogonek" unicode="&#x2db;" 
d="M261 -182l-132 107l146 28l65 -135h-79z" />
    <glyph glyph-name="tilde" unicode="&#x2dc;" 
d="M388 705q-8 -67 -30.5 -96.5t-58.5 -29.5q-20 0 -35.5 5.5t-35.5 15.5q-29 14 -41.5 18.5t-23.5 4.5t-18.5 -9.5t-13.5 -38.5l-65 14q8 68 30.5 97.5t58.5 29.5q20 0 35.5 -5.5t35.5 -15.5q29 -14 41.5 -19t23.5 -5t18.5 10t13.5 38z" />
    <glyph glyph-name="hungarumlaut" unicode="&#x2dd;" 
d="M281 580h-66l72 148l131 -25zM103 580h-67l72 148l131 -25z" />
    <glyph glyph-name="pi" unicode="&#x3c0;" horiz-adv-x="799" 
d="M745 346q0 -80 -25.5 -146t-71 -113.5t-109 -73.5t-140.5 -26t-140.5 26t-109 73t-70.5 112.5t-25 145.5t25.5 146.5t71 113.5t109.5 73t140 26q77 0 140.5 -26t109 -73t70.5 -112.5t25 -145.5zM701 345q0 78 -23.5 138t-64 101t-95.5 62t-118 21q-64 0 -119.5 -21
t-96 -62t-63.5 -101t-23 -138t23.5 -138t64 -101t95.5 -62t119 -21t119 21t95.5 62t63.5 101t23 138zM559 419q0 -64 -41.5 -96.5t-111.5 -32.5h-37v-140h-89v394h132q68 0 107.5 -32.5t39.5 -92.5zM473 418q0 28 -18 42.5t-50 14.5h-37v-116h36q32 0 50.5 14.5t18.5 44.5z
" />
    <glyph glyph-name="endash" unicode="&#x2013;" 
d="M48 231v112h358v-112h-358z" />
    <glyph glyph-name="emdash" unicode="&#x2014;" horiz-adv-x="908" 
d="M48 232v110h812v-110h-812z" />
    <glyph glyph-name="quoteleft" unicode="&#x2018;" horiz-adv-x="243" 
d="M170 424h-137l91 274l71 -16z" />
    <glyph glyph-name="quoteright" unicode="&#x2019;" horiz-adv-x="243" 
d="M118 416l-71 17l26 257h137z" />
    <glyph glyph-name="quotesinglbase" unicode="&#x201a;" horiz-adv-x="243" 
d="M124 -108l-74 16l11 238h138z" />
    <glyph glyph-name="quotedblleft" unicode="&#x201c;" horiz-adv-x="445" 
d="M169 424h-136l91 274l70 -16zM372 424h-135l91 274l70 -16z" />
    <glyph glyph-name="quotedblright" unicode="&#x201d;" horiz-adv-x="445" 
d="M117 416l-70 17l26 257h135zM321 416l-70 17l25 257h136z" />
    <glyph glyph-name="quotedblbase" unicode="&#x201e;" horiz-adv-x="449" 
d="M329 -108l-73 16l12 238h136zM124 -108l-74 16l11 238h138z" />
    <glyph glyph-name="dagger" unicode="&#x2020;" horiz-adv-x="506" 
d="M270 476h-35l-35 135v79h106v-79zM428 386l-135 34v33l135 35h35v-102h-35zM77 386h-35v102h35l136 -35v-33zM268 -114h-31l-30 128v265l28 119h35l29 -119v-265z" />
    <glyph glyph-name="daggerdbl" unicode="&#x2021;" horiz-adv-x="524" 
d="M279 476h-34l-36 135v79h106v-79zM437 388l-135 32v33l135 33h35v-98h-35zM87 388h-36v98h36l135 -33v-33zM279 111h-34l-32 119v49l32 119h34l32 -119v-49zM437 23l-135 32v33l135 33h35v-98h-35zM87 23h-36v98h36l135 -33v-33zM209 -182v79l36 136h34l36 -136v-79h-106
z" />
    <glyph glyph-name="bullet" unicode="&#x2022;" horiz-adv-x="451" 
d="M356 205l-130 -21l-129 21l-23 140l23 140l129 20l130 -20l21 -140z" />
    <glyph glyph-name="ellipsis" unicode="&#x2026;" horiz-adv-x="752" 
d="M561 0v145h130v-145h-130zM311 0v145h130v-145h-130zM62 0v145h130v-145h-130z" />
    <glyph glyph-name="perthousand" unicode="&#x2030;" horiz-adv-x="799" 
d="M745 346q0 -80 -25.5 -146t-71 -113.5t-109 -73.5t-140.5 -26t-140.5 26t-109 73t-70.5 112.5t-25 145.5t25.5 146.5t71 113.5t109.5 73t140 26q77 0 140.5 -26t109 -73t70.5 -112.5t25 -145.5zM701 345q0 78 -23.5 138t-64 101t-95.5 62t-118 21q-64 0 -119.5 -21
t-96 -62t-63.5 -101t-23 -138t23.5 -138t64 -101t95.5 -62t119 -21t119 21t95.5 62t63.5 101t23 138zM580 168l-92 -18l-101 144h-33v-139h-87v394h128q70 0 110.5 -32.5t40.5 -92.5q0 -41 -19.5 -68.5t-52.5 -41.5zM354 480v-120h36q70 0 70 60q0 28 -17.5 44t-51.5 16h-37
z" />
    <glyph glyph-name="guilsinglleft" unicode="&#x2039;" horiz-adv-x="328" 
d="M160 247l121 -235l-86 -19l-167 254l163 246h96z" />
    <glyph glyph-name="guilsinglright" unicode="&#x203a;" horiz-adv-x="328" 
d="M135 -4l-92 8l125 242l-124 240l91 10l165 -250z" />
    <glyph glyph-name="fraction" unicode="&#x2044;" horiz-adv-x="413" 
d="M30 -98l-75 17l424 686l75 -17z" />
    <glyph glyph-name="trademark" unicode="&#x2122;" horiz-adv-x="805" 
d="M682 345l-17 227l-81 -228h-66l-81 228l-18 -227h-69l26 345h96l85 -242l84 242h92l27 -345h-78zM211 626v-281h-77v281h-105v64h282l10 -64h-110z" />
    <glyph glyph-name="Omega" unicode="&#x2126;" horiz-adv-x="841" 
d="M180 417v-116h161l15 -96h-176v-205h-117v513h326v-96h-209zM600 417v-116h161l15 -96h-176v-205h-117v513h326v-96h-209z" />
    <glyph glyph-name="partialdiff" unicode="&#x2202;" horiz-adv-x="582" 
d="M252 197l112 24l40 -29q7 27 7 63t-8.5 67t-25 54.5t-40 36.5t-53.5 13q-31 0 -54.5 -13t-40 -35.5t-25 -54t-8.5 -67.5t9 -67t25.5 -54t40 -36.5t53.5 -13.5q45 0 78 30zM548 86l-20 -96l-82 62q-32 -30 -73.5 -46t-89.5 -16q-51 0 -96 18.5t-78 53t-52.5 84
t-19.5 110.5q0 62 19.5 111t53 84t78 53.5t95.5 18.5t96 -18.5t78.5 -53t52.5 -83.5t19 -111q0 -38 -8 -72t-22 -63z" />
    <glyph glyph-name="Delta" unicode="&#x2206;" horiz-adv-x="500" 
d="M25 800h450v-1000h-450v1000z" />
    <glyph glyph-name="product" unicode="&#x220f;" horiz-adv-x="500" 
d="M25 800h450v-1000h-450v1000z" />
    <glyph glyph-name="summation" unicode="&#x2211;" horiz-adv-x="767" 
d="M578 -1h-115l-80 242l-84 -242h-112l-172 499l121 21l122 -379l81 239l-39 120l117 20l109 -380l110 374h116z" />
    <glyph glyph-name="minus" unicode="&#x2212;" horiz-adv-x="500" 
d="M25 800h450v-1000h-450v1000z" />
    <glyph glyph-name="radical" unicode="&#x221a;" horiz-adv-x="1248" 
d="M180 417v-116h161l15 -96h-176v-205h-117v513h326v-96h-209zM600 417v-116h161l15 -96h-176v-205h-117v513h326v-96h-209zM904 0v513h120v-412h179l16 -101h-315z" />
    <glyph glyph-name="infinity" unicode="&#x221e;" horiz-adv-x="543" 
d="M272 419h-3l-70 -210h143zM129 0h-114l189 518h143l184 -503l-116 -23l-41 123h-206z" />
    <glyph glyph-name="integral" unicode="&#x222b;" horiz-adv-x="527" 
d="M481 42q-38 -23 -85.5 -37.5t-104.5 -14.5q-61 0 -108 19t-79.5 54t-49.5 84t-17 108q0 61 18 110.5t51.5 84.5t81 54t106.5 19q51 0 89 -10.5t70 -28.5l-16 -104q-31 20 -65 32.5t-76 12.5q-66 0 -103 -45t-37 -126q0 -79 36 -124.5t108 -45.5q25 0 42.5 4.5t32.5 12.5
v100h-95l-14 89h215v-248z" />
    <glyph glyph-name="approxequal" unicode="&#x2248;" horiz-adv-x="1097" 
d="M180 417v-116h161l15 -96h-176v-205h-117v513h326v-96h-209zM600 417v-116h161l15 -96h-176v-205h-117v513h326v-96h-209zM908 0v513h118v-513h-118z" />
    <glyph glyph-name="notequal" unicode="&#x2260;" horiz-adv-x="494" 
d="M260 217h6q95 -5 141.5 -50t46.5 -118q0 -56 -24.5 -99.5t-67 -73.5t-100 -46t-124.5 -16q-57 0 -96 6l-18 110q52 -11 115 -11q43 0 78.5 9t61 25.5t39.5 39.5t14 50q0 41 -29.5 62t-83.5 21q-17 0 -32.5 -1t-26.5 -2l-25 -3l-14 88l184 199h-259l-15 106h420v-93z" />
    <glyph glyph-name="lessequal" unicode="&#x2264;" horiz-adv-x="700" 
d="M527 0v356l-126 -358h-113l-125 358v-356h-100v513h156l134 -376l132 376h152v-513h-110z" />
    <glyph glyph-name="greaterequal" unicode="&#x2265;" horiz-adv-x="548" 
d="M386 0l-9 54q-34 -28 -72 -44.5t-83 -16.5q-78 0 -121 41.5t-43 133.5v345h118v-331q0 -89 80 -89q31 0 58 13.5t53 35.5v371h118v-513h-99z" />
    <glyph glyph-name="lozenge" unicode="&#x25ca;" horiz-adv-x="805" 
d="M682 345l-17 227l-81 -228h-66l-81 228l-18 -227h-69l26 345h96l85 -242l84 242h92l27 -345h-78zM174 340q-29 0 -56 7t-51 19l10 69q25 -15 50 -24.5t49 -9.5q20 0 33 9.5t13 25.5q0 18 -12 29t-42 24q-52 23 -74 44.5t-22 63.5q0 45 32 71.5t82 26.5q29 0 50.5 -5.5
t40.5 -16.5l-10 -68q-23 14 -43 21.5t-40 7.5q-21 0 -31.5 -9t-10.5 -22q0 -16 10.5 -26t39.5 -23q54 -22 77 -45t23 -67q0 -50 -33 -76t-85 -26z" />
    <glyph glyph-name="fi" unicode="&#xfb01;" horiz-adv-x="677" 
d="M180 417v-116h161l15 -96h-176v-205h-117v513h326v-96h-209zM487 0v513h118v-513h-118z" />
    <glyph glyph-name="fl" unicode="&#xfb02;" horiz-adv-x="827" 
d="M180 417v-116h161l15 -96h-176v-205h-117v513h326v-96h-209zM483 0v513h120v-412h179l16 -101h-315z" />
    <glyph glyph-name="NUL" horiz-adv-x="0" 
 />
    <glyph glyph-name="apple" horiz-adv-x="694" 
d="M436 -200l-8 14h-163l-8 -14h-207v303q14 0 23 9t9 23q0 13 -9 22.5t-23 9.5v554h100l30 79h334l29 -79h101v-921h-208zM400 391h15v78h38v14h-38v66h43v14h-58v-172zM184 391h15v79h47v-79h15v172h-15v-79h-47v79h-15v-172zM460 394q3 -2 9.5 -3t11.5 -1q31 0 31 36v137
h-16v-137q0 -22 -16 -22q-4 0 -10 2t-10 4v-16zM523 277h8v13l7 7l16 -20h9l-19 26l18 20h-10l-21 -24v24h-8v-46zM498 277h9l-12 17q10 3 10 15q0 5 -4 9.5t-12 4.5h-21v-46h8v15h12zM426 276q11 0 17.5 7t6.5 17q0 9 -6.5 16.5t-17.5 7.5t-17 -7.5t-6 -16.5q0 -10 6 -17
t17 -7zM357 323h-9l18 -29v-17h8v17l18 29h-9l-13 -22zM193 277h33v7h-25v13h22v7h-22v12h25v7h-33v-46zM132 277h8v32l25 -32h7v46h-8v-32l-25 32h-7v-46zM256 276h8l10 34h1l11 -34h8l14 47h-8l-10 -35h-1l-10 35h-8l-11 -35h-1l-10 35h-8zM327 479l-8.5 17t-3.5 15
t4 13.5t10 5.5t9.5 -5.5t3.5 -13.5q0 -15 -15 -32zM342 423q-2 -8 -7.5 -14.5t-10.5 -6.5q-8 0 -12.5 8t-4.5 19q0 18 15 33zM476 299v17h11q10 0 10 -8q0 -9 -9 -9h-12zM426 283q-7 0 -11 5t-4 12q0 6 4 11.5t11 5.5t11.5 -5.5t4.5 -11.5q0 -7 -4.5 -12t-11.5 -5zM333 469
q10 9 16.5 19.5t6.5 22.5q0 11 -6.5 21t-20.5 10q-13 0 -20.5 -10t-7.5 -21t4 -19.5t10 -19.5q-23 -18 -23 -45q0 -17 8.5 -28t22.5 -11q10 0 16.5 7.5t10.5 16.5h1l12 -24l11 8l-16 30q4 9 7.5 18.5t5.5 20.5l-13 3q-2 -7 -4.5 -15t-4.5 -15z" />
  </font>
</defs>
</svg>
